# xmcd CD database file
#
# Track frame offsets:
#	150
#	18095
#	36939
#	52912
#	67678
#	84051
#	101054
#	118148
#	133235
#	150909
#	167062
#	184541
#	251687
#	278290
#
# Disc length: 3919 seconds
#
# Revision: 0
# Processed by: cddbd v1.5.2PL0 Copyright (c) Steve Scherf et al.
# Submitted via: CDex 1.70beta3
#
DISCID=a20f4d0e
DTITLE=FLOW - FLOW ANIME BEST
DYEAR=1900
DGENRE=ロック
TTITLE0=GO!!!
TTITLE1=DAYS
TTITLE2=Realize
TTITLE3=Re:member
TTITLE4=COLORS
TTITLE5=WORD OF THE VOICE
TTITLE6=WORLD END
TTITLE7=SUMMER FREAK
TTITLE8=Sign
TTITLE9=CALLING
TTITLE10=1/3の純情な感情
TTITLE11=FLOW ANIME OP・ED Size Special Collection
TTITLE12=FLOW -2 ANIMEny DJ's MEGAMIX-
TTITLE13=METAL BLADE HIGH-SCHOOL
EXTD=
EXTT0=
EXTT1=
EXTT2=
EXTT3=
EXTT4=
EXTT5=
EXTT6=
EXTT7=
EXTT8=
EXTT9=
EXTT10=
EXTT11=
EXTT12=
EXTT13=
PLAYORDER=
